<?xml version="1.0" standalone="no"?><!DOCTYPE svg PUBLIC "-//W3C//DTD SVG 1.1//EN" "http://www.w3.org/Graphics/SVG/1.1/DTD/svg11.dtd"><svg t="1587903467251" class="icon" viewBox="0 0 1024 1024" version="1.1" xmlns="http://www.w3.org/2000/svg" p-id="1436" width="64" height="64" xmlns:xlink="http://www.w3.org/1999/xlink"><defs><style type="text/css"></style></defs><path d="M942 830c-0.5-13.4-11.8-24-25.3-23.6l-10.5 0.4-0.4-10.5c-0.5-13.4-11.8-24-25.3-23.6-13.4 0.5-24 11.8-23.6 25.3l1.2 34.9c0.5 13.4 11.8 24 25.3 23.6l34.9-1.2c13.6-0.5 24.2-11.9 23.7-25.3zM287.4 156.7l-44.9 0.1-0.1-44.8c0-8.3-6.7-14.9-14.9-14.9-8.3 0-14.9 6.7-14.9 15l0.1 44.8-44.8 0.1c-8.3 0-14.9 6.7-14.9 15s6.7 14.9 14.9 14.9l44.8-0.1 0.1 44.8c0 8.3 6.7 14.9 14.9 14.9 8.3 0 14.9-6.7 14.9-15l-0.1-44.8 44.8-0.1c8.3 0 14.9-6.7 14.9-15s-6.6-14.9-14.8-14.9z" fill="#44E0D8" p-id="1437"></path><path d="M182.3 323.4c-6.8-6.8-17.9-6.8-24.7 0l-5.3 5.3-5.3-5.3c-6.8-6.8-17.9-6.8-24.7 0-6.8 6.8-6.8 17.9 0 24.7l17.6 17.6c6.8 6.8 17.9 6.8 24.7 0l17.6-17.6c6.8-6.8 6.8-17.9 0.1-24.7z" fill="#44E0D8" opacity=".47" p-id="1438"></path><path d="M428.8 156.4c-20.6 0-37.4-16.8-37.4-37.4s16.8-37.4 37.4-37.4 37.4 16.8 37.4 37.4-16.8 37.4-37.4 37.4z m0-59.7c-12.4 0-22.4 10.1-22.4 22.4s10.1 22.4 22.4 22.4c12.4 0 22.4-10.1 22.4-22.4s-10-22.4-22.4-22.4z" fill="#44E0D8" opacity=".47" p-id="1439"></path><path d="M250.3 680.5c-3.8 0-7.6-1.4-10.5-4.3-5.9-5.8-5.9-15.3-0.1-21.1l45.2-45.5c5.8-5.8 15.3-5.9 21.1-0.1 5.9 5.8 5.9 15.3 0.1 21.1l-45.2 45.5c-3 2.9-6.8 4.4-10.6 4.4zM195 544.5c-8.2 0-14.9-6.7-14.9-14.9s6.6-15 14.9-15l64.2-0.2h0.1c8.2 0 14.9 6.7 14.9 14.9s-6.6 15-14.9 15l-64.3 0.2zM386.6 734.9c-8.2 0-14.9-6.7-14.9-14.9l-0.2-64.2c0-8.2 6.6-15 14.9-15h0.1c8.2 0 14.9 6.7 14.9 14.9l0.2 64.2c0 8.2-6.7 14.9-15 15 0.1 0 0 0 0 0zM944.4 945.2H77.6c-8.3 0-14.9-6.7-14.9-14.9 0-8.3 6.7-14.9 14.9-14.9h866.8c8.3 0 14.9 6.7 14.9 14.9s-6.7 14.9-14.9 14.9z" p-id="1440"></path><path d="M680.8 432.3L504.7 609.5c-24.4 24.6-62.8 25.8-85.7 2.7L347.2 540c-22.9-23.1-21.7-61.7 2.7-86.3L537 265.3c18.3-18.4 47.1-19.3 64.3-2l82.1 82.7c23 23.1 21.8 61.7-2.6 86.3z" fill="#44E0D8" opacity=".47" p-id="1441"></path><path d="M517.7 357.9c-3.8 0-7.6-1.4-10.5-4.3-5.9-5.8-5.9-15.3-0.1-21.1l30.6-30.8c10.1-10.1 23.3-15.7 37.2-15.7 13.1 0 25.3 5 34.3 14.1l10.4 10.4c5.8 5.9 5.8 15.3-0.1 21.1-5.9 5.8-15.3 5.8-21.1-0.1L588 321.1c-3.4-3.4-8.1-5.3-13.1-5.3-5.8 0-11.6 2.5-16 6.9l-30.6 30.8c-2.9 2.9-6.7 4.4-10.6 4.4z" fill="#FFFFFF" p-id="1442"></path><path d="M759.8 271.3L710 321.1l-83-83 49.8-49.8c1.1-1.1 2.8-1.1 3.9 0l79.1 79.1c1.1 1.1 1.1 2.8 0 3.9z" fill="#44E0D8" opacity=".47" p-id="1443"></path><path d="M699.1 377C607.3 448.7 511 569.1 430.7 553.1c-37.1-10.6-116.1-51.1-144.5-72.2 2 11.1 52.5 50.7 60.9 59.1l71.8 72.2c22.9 23.1 61.3 21.9 85.7-2.7l176.1-177.2c15.3-15.3 21.5-36.2 18.4-55.3z" fill="#44E0D8" p-id="1444"></path><path d="M440.6 302.2c-3.8 0-7.6-1.5-10.6-4.4-5.8-5.8-5.8-15.3 0-21.1l27.6-27.6c5.8-5.8 15.3-5.8 21.1 0 5.8 5.8 5.8 15.3 0 21.1l-27.6 27.6c-2.8 3-6.6 4.4-10.5 4.4z" p-id="1445"></path><path d="M451.8 642.5c-19.1 0-38.3-7.3-52.8-21.8L295.4 517.1c-14.1-14.1-21.9-32.9-21.9-52.8s7.8-38.7 21.9-52.8l96.4-96.5c5.8-5.8 15.3-5.8 21.1 0 5.8 5.8 5.8 15.3 0 21.1l-96.4 96.5c-8.5 8.5-13.1 19.7-13.1 31.7s4.7 23.2 13.1 31.7L420 599.5c17.5 17.5 45.9 17.5 63.4 0l217.3-217.3c17.5-17.5 17.5-45.9 0-63.4l-114-114.1c-11.3-11.3-31-11.3-42.3 0L517.1 232c-5.8 5.8-15.3 5.8-21.1 0-5.8-5.8-5.8-15.3 0-21.1l27.4-27.4c22.6-22.6 62-22.6 84.5 0L722 297.6c29.1 29.1 29.1 76.5 0 105.7L504.6 620.6c-14.6 14.6-33.7 21.9-52.8 21.9z" p-id="1446"></path><path d="M712.9 316.5L599.5 203.2l47-47c17.5-17.5 45.9-17.5 63.4 0l50 50c17.5 17.5 17.5 45.9 0 63.4l-47 46.9z m-71.1-113.3l71.1 71.1 25.8-25.8c5.8-5.8 5.8-15.3 0-21.1l-50-50c-5.8-5.8-15.3-5.8-21.1 0l-25.8 25.8zM717.5 935.8l-27.7-11.1c62.6-156.5 110.5-322.7-47.3-482.9l21.3-21c170.4 173.1 117.1 356.6 53.7 515z" p-id="1447"></path></svg>